<svg width="45" height="44" viewBox="0 0 45 44" fill="none" xmlns="http://www.w3.org/2000/svg">
<path d="M44.8535 22C44.8535 34.1503 34.8155 44 22.4331 44C10.0506 44 0.0126953 34.1503 0.0126953 22C0.0126953 9.84974 10.0506 0 22.4331 0C34.8155 0 44.8535 9.84974 44.8535 22Z" fill="white"/>
<g clip-path="url(#clip0)">
<path d="M15.6332 22.8076C15.0605 23.9122 15.7107 24.4402 17.1942 25.3422C18.4554 26.1067 20.1976 26.3862 21.3168 26.4981C20.8581 26.9307 22.96 24.9471 16.9065 30.6607C15.6229 31.8679 17.6893 33.8048 18.972 32.6232L22.4443 29.337C23.7737 30.5919 25.0479 31.7946 25.9167 32.6278C27.2002 33.814 29.2657 31.8936 27.9962 30.6652C27.9009 30.5763 23.2907 26.2368 23.5719 26.5027C24.705 26.3908 26.4211 26.0947 27.6673 25.3467L27.6664 25.3458C29.1499 24.4392 29.8001 23.9122 29.2358 22.8076C28.8948 22.1806 27.9756 21.6562 26.7518 22.5628C26.7518 22.5628 25.0993 23.8049 22.434 23.8049C19.7679 23.8049 18.1162 22.5628 18.1162 22.5628C16.8934 21.6517 15.9704 22.1806 15.6332 22.8076Z" fill="#5A6067"/>
<path d="M22.4322 22.1302C25.6812 22.1302 28.3343 19.6387 28.3343 16.5715C28.3343 13.4915 25.6812 11 22.4322 11C19.1821 11 16.5291 13.4915 16.5291 16.5715C16.5291 19.6387 19.1821 22.1302 22.4322 22.1302ZM22.4322 13.8224C24.0287 13.8224 25.3309 15.0517 25.3309 16.5715C25.3309 18.0785 24.0287 19.3078 22.4322 19.3078C20.8356 19.3078 19.5334 18.0785 19.5334 16.5715C19.5324 15.0508 20.8347 13.8224 22.4322 13.8224Z" fill="#5A6067"/>
</g>
<defs>
<clipPath id="clip0">
<rect width="22.4204" height="22" fill="white" transform="translate(11.2229 11)"/>
</clipPath>
</defs>
</svg>
