<svg width="45" height="44" viewBox="0 0 45 44" fill="none" xmlns="http://www.w3.org/2000/svg">
<path d="M44.8535 22C44.8535 34.1503 34.8155 44 22.4331 44C10.0506 44 0.0126953 34.1503 0.0126953 22C0.0126953 9.84974 10.0506 0 22.4331 0C34.8155 0 44.8535 9.84974 44.8535 22Z" fill="white"/>
<path d="M19.5172 16.1186C19.5172 16.6647 19.5172 19.0311 19.5172 19.0311H17.3374V22.6036H19.5172V33.2299H23.9928V22.6263H27.0074C27.0074 22.6263 27.2856 20.9198 27.4248 19.0311C27.0306 19.0311 24.0159 19.0311 24.0159 19.0311C24.0159 19.0311 24.0159 16.9605 24.0159 16.5964C24.0159 16.2323 24.5029 15.7317 24.9899 15.7317C25.4769 15.7317 26.4972 15.7317 27.4248 15.7317C27.4248 15.2539 27.4248 13.5701 27.4248 12C26.1725 12 24.7348 12 24.1087 12C19.4244 12 19.5172 15.5952 19.5172 16.1186Z" fill="#5A6067"/>
</svg>
