<svg width="45" height="44" viewBox="0 0 45 44" fill="none" xmlns="http://www.w3.org/2000/svg">
<path d="M44.8535 22C44.8535 34.1503 34.8155 44 22.4331 44C10.0506 44 0.0126953 34.1503 0.0126953 22C0.0126953 9.84974 10.0506 0 22.4331 0C34.8155 0 44.8535 9.84974 44.8535 22Z" fill="white"/>
<path d="M33.6223 18.1741C33.5721 17.0582 33.3883 16.2911 33.1248 15.6264C32.8531 14.9209 32.435 14.2892 31.8873 13.764C31.3521 13.2307 30.7041 12.8163 29.9934 12.5538C29.312 12.2953 28.5343 12.1149 27.3972 12.0657C26.2516 12.0123 25.8879 12 22.9823 12C20.0766 12 19.713 12.0123 18.5716 12.0615C17.4344 12.1107 16.6527 12.2913 15.9754 12.5497C15.2562 12.8163 14.6124 13.2265 14.0773 13.764C13.5338 14.2892 13.1116 14.925 12.8439 15.6224C12.5805 16.2911 12.3966 17.0541 12.3465 18.1699C12.2921 19.294 12.2795 19.6509 12.2795 22.5021C12.2795 25.3532 12.2921 25.7101 12.3423 26.83C12.3924 27.9459 12.5764 28.713 12.8399 29.3777C13.1116 30.0833 13.5338 30.715 14.0773 31.2401C14.6124 31.7734 15.2605 32.1878 15.9712 32.4503C16.6527 32.7088 17.4302 32.8892 18.5675 32.9384C19.7087 32.9878 20.0726 32.9999 22.9782 32.9999C25.8838 32.9999 26.2475 32.9878 27.3889 32.9384C28.526 32.8892 29.3078 32.7088 29.985 32.4503C31.4233 31.9046 32.5604 30.7888 33.1165 29.3777C33.3798 28.709 33.5638 27.9459 33.614 26.83C33.6641 25.7101 33.6767 25.3532 33.6767 22.5021C33.6767 19.6509 33.6724 19.294 33.6223 18.1741ZM31.6951 26.748C31.649 27.7736 31.4734 28.3274 31.3271 28.6966C30.9675 29.6115 30.2275 30.3376 29.2952 30.6904C28.9189 30.834 28.3505 31.0063 27.3093 31.0513C26.1805 31.1007 25.842 31.1129 22.9865 31.1129C20.131 31.1129 19.7882 31.1007 18.6635 31.0513C17.6183 31.0063 17.0539 30.834 16.6777 30.6904C16.2137 30.5222 15.7914 30.2555 15.4486 29.9068C15.0932 29.5663 14.8215 29.1561 14.65 28.7008C14.5037 28.3316 14.3281 27.7736 14.2822 26.7522C14.2319 25.6445 14.2195 25.3122 14.2195 22.5102C14.2195 19.7083 14.2319 19.3719 14.2822 18.2684C14.3281 17.2429 14.5037 16.689 14.65 16.3198C14.8215 15.8644 15.0932 15.4502 15.4528 15.1136C15.7997 14.7649 16.2178 14.4983 16.6819 14.3302C17.0582 14.1866 17.6268 14.0143 18.6678 13.9691C19.7966 13.9199 20.1353 13.9076 22.9906 13.9076C25.8503 13.9076 26.1889 13.9199 27.3136 13.9691C28.3588 14.0143 28.9232 14.1866 29.2995 14.3302C29.7634 14.4983 30.1857 14.7649 30.5285 15.1136C30.8839 15.4542 31.1556 15.8644 31.3271 16.3198C31.4734 16.689 31.649 17.2469 31.6951 18.2684C31.7452 19.3761 31.7578 19.7083 31.7578 22.5102C31.7578 25.3122 31.7452 25.6404 31.6951 26.748Z" fill="#5A6067"/>
<path d="M22.9823 17.1074C19.9471 17.1074 17.4846 19.5237 17.4846 22.5021C17.4846 25.4804 19.9471 27.8967 22.9823 27.8967C26.0176 27.8967 28.48 25.4804 28.48 22.5021C28.48 19.5237 26.0176 17.1074 22.9823 17.1074ZM22.9823 26.0014C21.0132 26.0014 19.416 24.4343 19.416 22.5021C19.416 20.5698 21.0132 19.0027 22.9823 19.0027C24.9515 19.0027 26.5485 20.5698 26.5485 22.5021C26.5485 24.4343 24.9515 26.0014 22.9823 26.0014Z" fill="#5A6067"/>
<path d="M29.981 16.8941C29.981 17.5896 29.4063 18.1535 28.6974 18.1535C27.9886 18.1535 27.4139 17.5896 27.4139 16.8941C27.4139 16.1985 27.9886 15.6347 28.6974 15.6347C29.4063 15.6347 29.981 16.1985 29.981 16.8941Z" fill="#5A6067"/>
</svg>
