<svg width="45" height="44" viewBox="0 0 45 44" fill="none" xmlns="http://www.w3.org/2000/svg">
<path d="M44.8535 22C44.8535 34.1503 34.8155 44 22.4331 44C10.0506 44 0.0126953 34.1503 0.0126953 22C0.0126953 9.84974 10.0506 0 22.4331 0C34.8155 0 44.8535 9.84974 44.8535 22Z" fill="white"/>
<path d="M30.2942 24.5712C31.0594 25.2994 31.871 26.0047 32.5667 26.8011C32.8682 27.1652 33.1464 27.5293 33.3783 27.9389C33.6798 28.5305 33.4015 29.1904 32.8682 29.2131H29.5057C28.6477 29.2814 27.952 28.9401 27.3723 28.3485C26.9085 27.8934 26.4679 27.3928 26.0273 26.9149C25.8418 26.7101 25.6563 26.5281 25.4244 26.3916C24.9606 26.0958 24.5664 26.1868 24.3113 26.6646C24.0331 27.1425 23.9867 27.6658 23.9635 28.2119C23.9171 28.9856 23.6852 29.1904 22.8968 29.2359C21.204 29.3041 19.5807 29.0538 18.0734 28.2119C16.7516 27.461 15.7313 26.4143 14.8269 25.2311C13.0877 22.9329 11.7659 20.3844 10.5601 17.7676C10.2818 17.176 10.4905 16.8574 11.1398 16.8574C12.2297 16.8347 13.3428 16.8347 14.4327 16.8574C14.8733 16.8574 15.1747 17.1077 15.3371 17.5173C15.94 18.9508 16.6588 20.3161 17.5632 21.5676C17.7951 21.9089 18.0502 22.2502 18.398 22.4778C18.7923 22.7508 19.0937 22.6598 19.2792 22.2275C19.3952 21.9544 19.4416 21.6586 19.4648 21.3856C19.5575 20.3844 19.5575 19.3832 19.4184 18.4047C19.3256 17.7904 18.9778 17.3808 18.3285 17.267C18.0038 17.1988 18.0502 17.085 18.2125 16.9029C18.4908 16.5844 18.7459 16.4023 19.2329 16.4023H23.0359C23.6388 16.5161 23.778 16.7892 23.8475 17.3808V21.5221C23.8475 21.7497 23.9635 22.4323 24.3809 22.5916C24.7055 22.7053 24.9374 22.4323 25.1461 22.2275C26.0505 21.2718 26.6998 20.1568 27.2796 18.9964C27.5346 18.4958 27.7665 17.9496 27.9752 17.4263C28.1376 17.0395 28.3926 16.8347 28.8332 16.8574H32.4971C32.6131 16.8574 32.7059 16.8574 32.8218 16.8802C33.4479 16.994 33.6102 17.2443 33.4247 17.8359C33.1233 18.7688 32.5435 19.5425 31.9638 20.3161C31.3609 21.1353 30.7116 21.9544 30.0855 22.7736C29.5521 23.5245 29.5985 23.9113 30.2942 24.5712Z" fill="#5A6067"/>
</svg>
