<svg width="45" height="44" viewBox="0 0 45 44" fill="none" xmlns="http://www.w3.org/2000/svg">
<path d="M44.8535 22C44.8535 34.1503 34.8155 44 22.4331 44C10.0506 44 0.0126953 34.1503 0.0126953 22C0.0126953 9.84974 10.0506 0 22.4331 0C34.8155 0 44.8535 9.84974 44.8535 22Z" fill="white"/>
<path d="M32.6241 21.7424C32.6241 27.1231 28.1448 31.4849 22.6183 31.4849C20.8638 31.4849 19.2156 31.0449 17.7816 30.2727L12.2419 32L14.048 26.7729C13.1369 25.3049 12.6122 23.5831 12.6122 21.7424C12.6122 16.3618 17.092 12 22.6183 12C28.1452 12 32.6241 16.3618 32.6241 21.7424ZM22.6183 13.5516C17.9793 13.5516 14.2059 17.226 14.2059 21.7424C14.2059 23.5347 14.8013 25.1944 15.8084 26.5447L14.7573 29.5867L17.9902 28.5784C19.3184 29.4342 20.9096 29.9333 22.6185 29.9333C27.2568 29.9333 31.0309 26.2593 31.0309 21.7429C31.0309 17.2264 27.257 13.5516 22.6183 13.5516ZM27.671 23.9862C27.6092 23.8869 27.4459 23.8269 27.2009 23.7076C26.9554 23.5882 25.7492 23.0102 25.525 22.9309C25.3001 22.8513 25.1362 22.8113 24.9729 23.0502C24.8096 23.2893 24.3394 23.8269 24.1961 23.9862C24.053 24.146 23.9101 24.166 23.6646 24.0464C23.4195 23.9271 22.6294 23.6747 21.6925 22.8613C20.9635 22.2284 20.4711 21.4471 20.328 21.2078C20.1851 20.9689 20.3131 20.8398 20.4356 20.7209C20.5461 20.6138 20.6811 20.442 20.8036 20.3027C20.9266 20.1631 20.9673 20.0638 21.0486 19.9042C21.1308 19.7449 21.0898 19.6056 21.0282 19.4858C20.9671 19.3664 20.4761 18.1913 20.2718 17.7131C20.0676 17.2353 19.8635 17.3149 19.7202 17.3149C19.5773 17.3149 19.4135 17.2949 19.25 17.2949C19.0865 17.2949 18.8206 17.3547 18.5957 17.5936C18.3711 17.8327 17.7377 18.4104 17.7377 19.5853C17.7377 20.7604 18.6161 21.8958 18.7391 22.0549C18.8616 22.214 20.4353 24.7038 22.9288 25.66C25.4224 26.6158 25.4224 26.2969 25.8722 26.2569C26.3215 26.2171 27.3229 25.6793 27.5281 25.122C27.7319 24.5638 27.7319 24.0858 27.671 23.9862Z" fill="#5A6067"/>
</svg>
